# xmcd
#
# Track frame offsets: 
#        182
#        15960
#        29672
#
# Disc length: 605 seconds
#
# Revision: 0
# Processed by: cddbd v1.5.2PL0 Copyright (c) Steve Scherf et al.
# Submitted via: ExactAudioCopy v0.95b4
#
DISCID=18025b03
DTITLE=Nik Jordan - Deine Augen lügen nicht
DYEAR=1900
DGENRE=Schlager
TTITLE0=Deine Augen lügen nicht
TTITLE1=Wenn du liebst
TTITLE2=Deine Augen lügen nicht (Instrumental)
EXTD=
EXTT0=
EXTT1=
EXTT2=
PLAYORDER=
